Coordinates
version=1
nRows=8
nColumns=33
inDegrees=yes

Units are S.I. units (second, meters, Newtons, ...)
Angles are in degrees.

endheader
time	ground_thorax_rot_x	ground_thorax_rot_y	ground_thorax_rot_z	ground_thorax_tx	ground_thorax_ty	ground_thorax_tz	clav_prot_r	clav_elev_r	scapula_abduction_r	scapula_elevation_r	scapula_upward_rot_r	scapula_winging_r	shoulder_elv_r	plane_of_elev_r	axial_rot_r	elbow_flexion_r	pro_sup_r	wrist_flex_r	wrist_dev_r	clav_prot_l	clav_elev_l	scapula_abduction_l	scapula_elevation_l	scapula_upward_rot_l	scapula_winging_l	shoulder_elv_l	plane_of_elev_l	axial_rot_l	elbow_flexion_l	pro_sup_l	wrist_flex_l	wrist_dev_l
      3.26000000	    -29.58446979	    -26.77468467	     37.13307924	     22.39830825	    784.78346454	    -41.22646392	     27.11896322	    -45.00000000	     38.04240655	    -45.00000000	    -45.00000000	  -4409.93650227	  -1728.71429178	     21.74324416	    179.99999979	   1804.81277048	   -166.47033175	     11.95148142	     12.69294190	      1.93171587	     26.61944181	    -23.98083749	    -45.00000000	    -45.00000000	  -4609.53136714	  -2425.98699200	     17.56057243	   -179.99999979	   1799.37539623	   -177.43433339	     13.01579179	    -13.37567851
      3.27000000	    -29.64005257	    -26.73099837	     37.11876043	     22.23531308	    784.96052245	    -41.23755583	     27.32645800	    -45.00000000	     38.06046406	    -45.00000000	    -45.00000000	  -4410.11909874	  -1728.73362265	     21.91486155	    179.99999979	   1804.79025849	   -166.58889433	     11.77219001	     12.69359160	      1.85415957	     26.69603841	    -24.15288020	    -45.00000000	    -45.00000000	  -4609.26416535	  -2426.14578368	     17.69310526	   -179.99999979	   1799.54837122	   -177.38707986	     12.76475096	    -13.63536333
      3.28000000	    -29.61082101	    -26.79563746	     37.18264436	     21.97214662	    785.21003862	    -41.26663979	     27.12110629	    -45.00000000	     38.11881461	    -45.00000000	    -45.00000000	  -4410.01140979	  -1728.56917619	     21.79695632	    179.99999979	   1804.78436075	   -166.74001118	     12.02177826	     12.65131469	      1.95534630	     26.70764835	    -23.97829040	    -45.00000000	    -45.00000000	  -4609.33761133	  -2425.85362290	     17.57732607	   -179.99999979	   1799.38355669	   -177.25113519	     12.85929634	    -13.34794152
      3.29000000	    -29.71661517	    -26.74109654	     37.14427671	     21.60903756	    785.53832987	    -41.30101109	     27.24110027	    -45.00000000	     38.08431248	    -45.00000000	    -45.00000000	  -4410.22777789	  -1728.55757301	     22.04828610	    179.99999979	   1804.72006192	   -166.82399509	     11.79456615	     12.65426394	      1.87789154	     26.76580397	    -24.26726685	    -45.00000000	    -45.00000000	  -4609.00973703	  -2426.00808519	     17.71902796	   -179.99999979	   1799.63921087	   -177.24781984	     12.53879274	    -13.67564061
      3.30000000	    -29.76167378	    -26.74778409	     37.09794361	     21.14560328	    785.94797585	    -41.34208132	     27.09286963	    -45.00000000	     38.13343608	    -45.00000000	    -45.00000000	  -4410.19134937	  -1728.47307361	     21.98161060	    179.99999979	   1804.68027183	   -166.94381737	     12.11528143	     12.67678252	      1.95529345	     26.82887387	    -24.06922583	    -45.00000000	    -45.00000000	  -4608.98391105	  -2425.69609415	     17.71536483	   -179.99999979	   1799.35569682	   -177.15735638	     12.60017410	    -13.38331670
      3.31000000	    -29.88603652	    -26.58593070	     37.10418898	     20.57633383	    786.44561054	    -41.39312639	     27.23013558	    -45.00000000	     37.99755321	    -45.00000000	    -45.00000000	  -4410.55256772	  -1728.46801121	     22.27479973	    179.99999979	   1804.61544237	   -166.97708554	     11.65503516	     12.68483660	      1.78043965	     26.82415755	    -24.60757440	    -45.00000000	    -45.00000000	  -4608.56216526	  -2426.08036761	     17.87742550	   -179.99999979	   1799.70167918	   -177.24047232	     12.10437485	    -13.98377833
      3.32000000	    -29.85133445	    -26.75765799	     37.21725631	     19.90775822	    787.02418952	    -41.45241415	     27.10274570	    -45.00000000	     38.01541544	    -45.00000000	    -45.00000000	  -4410.46484093	  -1728.30583174	     22.11840104	    179.99999979	   1804.54691418	   -167.12364160	     12.04938889	     12.64156444	      1.85256026	     26.90176354	    -24.36818270	    -45.00000000	    -45.00000000	  -4608.65683234	  -2425.71258980	     17.63923613	   -179.99999979	   1799.49796933	   -177.12726605	     12.28326413	    -13.54510876
      3.33000000	    -29.96090362	    -26.74056931	     37.15604393	     19.14919967	    787.67527064	    -41.51850598	     27.05798670	    -45.00000000	     38.00015747	    -45.00000000	    -45.00000000	  -4410.58149217	  -1728.21621008	     22.20996974	    179.99999979	   1804.47773052	   -167.23067502	     12.06846307	     12.67046417	      1.91644394	     26.99293032	    -24.45737570	    -45.00000000	    -45.00000000	  -4608.41919494	  -2425.63242999	     17.77501690	   -179.99999979	   1799.57398264	   -177.11140626	     12.13298413	    -13.71337631
